<mxfile host="Electron" modified="2023-05-23T17:37:20.167Z" agent="Mozilla/5.0 (Windows NT 10.0; Win64; x64) AppleWebKit/537.36 (KHTML, like Gecko) draw.io/21.1.2 Chrome/106.0.5249.199 Electron/21.4.3 Safari/537.36" etag="Qspo72NeOOqe-uYWASpO" version="21.1.2" type="device">
  <diagram name="Page-1" id="ds5AEwxgpSpcmCygQ6wh">
    <mxGraphModel dx="3475" dy="1573" grid="1" gridSize="10" guides="1" tooltips="1" connect="1" arrows="1" fold="1" page="1" pageScale="1" pageWidth="850" pageHeight="1100" math="0" shadow="0">
      <root>
        <mxCell id="0" />
        <mxCell id="1" parent="0" />
        <mxCell id="ctpqW6RR7XRs9QMeQwGN-1" value="Employeur&lt;br&gt;" style="shape=umlActor;verticalLabelPosition=bottom;verticalAlign=top;html=1;outlineConnect=0;" vertex="1" parent="1">
          <mxGeometry x="-50" y="415" width="30" height="60" as="geometry" />
        </mxCell>
        <mxCell id="ctpqW6RR7XRs9QMeQwGN-5" value="Saisir les informations &lt;br/&gt;techniques et légale de &lt;br/&gt;l’entreprise" style="rounded=1;whiteSpace=wrap;html=1;" vertex="1" parent="1">
          <mxGeometry x="520" y="50" width="150" height="55" as="geometry" />
        </mxCell>
        <mxCell id="ctpqW6RR7XRs9QMeQwGN-6" value="Saisir les informations &lt;br/&gt;professionnelles de l’employer" style="rounded=1;whiteSpace=wrap;html=1;" vertex="1" parent="1">
          <mxGeometry x="520" y="115" width="150" height="65" as="geometry" />
        </mxCell>
        <mxCell id="ctpqW6RR7XRs9QMeQwGN-7" value="Verifier son email&amp;nbsp;" style="rounded=1;whiteSpace=wrap;html=1;" vertex="1" parent="1">
          <mxGeometry x="520" y="190" width="150" height="55" as="geometry" />
        </mxCell>
        <mxCell id="ctpqW6RR7XRs9QMeQwGN-8" value="Creer une offre d&#39;emploi" style="rounded=1;whiteSpace=wrap;html=1;" vertex="1" parent="1">
          <mxGeometry x="330" y="530" width="120" height="40" as="geometry" />
        </mxCell>
        <mxCell id="ctpqW6RR7XRs9QMeQwGN-9" value="Gestion de compte employeur" style="rounded=1;whiteSpace=wrap;html=1;" vertex="1" parent="1">
          <mxGeometry x="70" y="205" width="120" height="40" as="geometry" />
        </mxCell>
        <mxCell id="ctpqW6RR7XRs9QMeQwGN-10" value="Modifier son profil&amp;nbsp;" style="rounded=1;whiteSpace=wrap;html=1;" vertex="1" parent="1">
          <mxGeometry x="520" y="285" width="150" height="55" as="geometry" />
        </mxCell>
        <mxCell id="ctpqW6RR7XRs9QMeQwGN-11" value="Modifier les informations de &lt;br/&gt;l’entreprise" style="rounded=1;whiteSpace=wrap;html=1;" vertex="1" parent="1">
          <mxGeometry x="520" y="350" width="150" height="55" as="geometry" />
        </mxCell>
        <mxCell id="ctpqW6RR7XRs9QMeQwGN-12" value="Saisir les informations de &lt;br/&gt;l’offre" style="rounded=1;whiteSpace=wrap;html=1;" vertex="1" parent="1">
          <mxGeometry x="520" y="455" width="150" height="45" as="geometry" />
        </mxCell>
        <mxCell id="ctpqW6RR7XRs9QMeQwGN-13" value="Déterminer le salaire et le &lt;br/&gt;devise&amp;nbsp;" style="rounded=1;whiteSpace=wrap;html=1;" vertex="1" parent="1">
          <mxGeometry x="520" y="510" width="150" height="40" as="geometry" />
        </mxCell>
        <mxCell id="ctpqW6RR7XRs9QMeQwGN-14" value="Déterminer le type de poste" style="rounded=1;whiteSpace=wrap;html=1;" vertex="1" parent="1">
          <mxGeometry x="520" y="560" width="150" height="31" as="geometry" />
        </mxCell>
        <mxCell id="ctpqW6RR7XRs9QMeQwGN-15" value="Affecter une catégorie a l’offre" style="rounded=1;whiteSpace=wrap;html=1;" vertex="1" parent="1">
          <mxGeometry x="520" y="600" width="150" height="40" as="geometry" />
        </mxCell>
        <mxCell id="ctpqW6RR7XRs9QMeQwGN-17" value="Modifier / Supprimer une offre" style="rounded=1;whiteSpace=wrap;html=1;" vertex="1" parent="1">
          <mxGeometry x="330" y="685" width="120" height="40" as="geometry" />
        </mxCell>
        <mxCell id="ctpqW6RR7XRs9QMeQwGN-20" value="Modifier" style="rounded=1;whiteSpace=wrap;html=1;" vertex="1" parent="1">
          <mxGeometry x="330" y="320" width="120" height="30" as="geometry" />
        </mxCell>
        <mxCell id="ctpqW6RR7XRs9QMeQwGN-22" value="Gestion des offres d&#39;emplois" style="rounded=1;whiteSpace=wrap;html=1;" vertex="1" parent="1">
          <mxGeometry x="70" y="591" width="120" height="40" as="geometry" />
        </mxCell>
        <mxCell id="ctpqW6RR7XRs9QMeQwGN-23" value="Consulter les candidatures" style="rounded=1;whiteSpace=wrap;html=1;" vertex="1" parent="1">
          <mxGeometry x="330" y="765" width="120" height="40" as="geometry" />
        </mxCell>
        <mxCell id="ctpqW6RR7XRs9QMeQwGN-24" value="Affecter une catégorie a l’offre" style="rounded=1;whiteSpace=wrap;html=1;" vertex="1" parent="1">
          <mxGeometry x="520" y="765" width="150" height="40" as="geometry" />
        </mxCell>
        <mxCell id="ctpqW6RR7XRs9QMeQwGN-25" value="extends" style="html=1;verticalAlign=bottom;endArrow=open;dashed=1;endSize=8;edgeStyle=elbowEdgeStyle;elbow=vertical;curved=0;rounded=0;exitX=0;exitY=0.5;exitDx=0;exitDy=0;entryX=0.5;entryY=0;entryDx=0;entryDy=0;" edge="1" parent="1" target="ctpqW6RR7XRs9QMeQwGN-9">
          <mxGeometry relative="1" as="geometry">
            <mxPoint x="330.0000000000002" y="135" as="sourcePoint" />
            <mxPoint x="200" y="215.43" as="targetPoint" />
            <Array as="points">
              <mxPoint x="260" y="135" />
            </Array>
          </mxGeometry>
        </mxCell>
        <mxCell id="ctpqW6RR7XRs9QMeQwGN-26" value="extends" style="html=1;verticalAlign=bottom;endArrow=open;dashed=1;endSize=8;edgeStyle=elbowEdgeStyle;elbow=vertical;curved=0;rounded=0;exitX=0.5;exitY=0;exitDx=0;exitDy=0;entryX=1;entryY=0.5;entryDx=0;entryDy=0;" edge="1" parent="1" source="ctpqW6RR7XRs9QMeQwGN-20" target="ctpqW6RR7XRs9QMeQwGN-9">
          <mxGeometry relative="1" as="geometry">
            <mxPoint x="340" y="145" as="sourcePoint" />
            <mxPoint x="140" y="215" as="targetPoint" />
            <Array as="points">
              <mxPoint x="300" y="225" />
            </Array>
          </mxGeometry>
        </mxCell>
        <mxCell id="ctpqW6RR7XRs9QMeQwGN-27" value="includ&lt;br&gt;" style="html=1;verticalAlign=bottom;endArrow=open;dashed=1;endSize=8;edgeStyle=elbowEdgeStyle;elbow=vertical;curved=0;rounded=0;exitX=0.5;exitY=0;exitDx=0;exitDy=0;entryX=0;entryY=0.5;entryDx=0;entryDy=0;" edge="1" parent="1" source="ctpqW6RR7XRs9QMeQwGN-57" target="ctpqW6RR7XRs9QMeQwGN-5">
          <mxGeometry relative="1" as="geometry">
            <mxPoint x="620.0000000000002" y="135" as="sourcePoint" />
            <mxPoint x="370" y="230" as="targetPoint" />
            <Array as="points">
              <mxPoint x="650" y="78" />
            </Array>
          </mxGeometry>
        </mxCell>
        <mxCell id="ctpqW6RR7XRs9QMeQwGN-28" value="includ&lt;br&gt;" style="html=1;verticalAlign=bottom;endArrow=open;dashed=1;endSize=8;edgeStyle=elbowEdgeStyle;elbow=vertical;curved=0;rounded=0;entryX=0;entryY=0.5;entryDx=0;entryDy=0;exitX=1;exitY=0.25;exitDx=0;exitDy=0;" edge="1" parent="1" source="ctpqW6RR7XRs9QMeQwGN-57" target="ctpqW6RR7XRs9QMeQwGN-6">
          <mxGeometry relative="1" as="geometry">
            <mxPoint x="670" y="148" as="sourcePoint" />
            <mxPoint x="760" y="88" as="targetPoint" />
            <Array as="points" />
          </mxGeometry>
        </mxCell>
        <mxCell id="ctpqW6RR7XRs9QMeQwGN-29" value="includ&lt;br&gt;" style="html=1;verticalAlign=bottom;endArrow=open;dashed=1;endSize=8;edgeStyle=elbowEdgeStyle;elbow=vertical;curved=0;rounded=0;entryX=0;entryY=0.5;entryDx=0;entryDy=0;exitX=0.5;exitY=1;exitDx=0;exitDy=0;" edge="1" parent="1" source="ctpqW6RR7XRs9QMeQwGN-57" target="ctpqW6RR7XRs9QMeQwGN-7">
          <mxGeometry relative="1" as="geometry">
            <mxPoint x="620" y="170" as="sourcePoint" />
            <mxPoint x="760" y="158" as="targetPoint" />
            <Array as="points">
              <mxPoint x="570" y="205" />
            </Array>
          </mxGeometry>
        </mxCell>
        <mxCell id="ctpqW6RR7XRs9QMeQwGN-30" value="extends" style="html=1;verticalAlign=bottom;endArrow=open;dashed=1;endSize=8;edgeStyle=elbowEdgeStyle;elbow=vertical;curved=0;rounded=0;exitX=0;exitY=0.5;exitDx=0;exitDy=0;entryX=0.75;entryY=0;entryDx=0;entryDy=0;" edge="1" parent="1" source="ctpqW6RR7XRs9QMeQwGN-10" target="ctpqW6RR7XRs9QMeQwGN-20">
          <mxGeometry relative="1" as="geometry">
            <mxPoint x="340" y="145" as="sourcePoint" />
            <mxPoint x="140" y="215" as="targetPoint" />
            <Array as="points">
              <mxPoint x="470" y="295" />
            </Array>
          </mxGeometry>
        </mxCell>
        <mxCell id="ctpqW6RR7XRs9QMeQwGN-31" value="extends" style="html=1;verticalAlign=bottom;endArrow=open;dashed=1;endSize=8;edgeStyle=elbowEdgeStyle;elbow=vertical;curved=0;rounded=0;exitX=0;exitY=0.5;exitDx=0;exitDy=0;entryX=0.75;entryY=1;entryDx=0;entryDy=0;" edge="1" parent="1" source="ctpqW6RR7XRs9QMeQwGN-11" target="ctpqW6RR7XRs9QMeQwGN-20">
          <mxGeometry relative="1" as="geometry">
            <mxPoint x="530" y="323" as="sourcePoint" />
            <mxPoint x="460" y="338" as="targetPoint" />
            <Array as="points">
              <mxPoint x="490" y="385" />
            </Array>
          </mxGeometry>
        </mxCell>
        <mxCell id="ctpqW6RR7XRs9QMeQwGN-32" value="extends" style="html=1;verticalAlign=bottom;endArrow=open;dashed=1;endSize=8;edgeStyle=elbowEdgeStyle;elbow=vertical;curved=0;rounded=0;exitX=0;exitY=0.5;exitDx=0;exitDy=0;entryX=0.5;entryY=0;entryDx=0;entryDy=0;" edge="1" parent="1" source="ctpqW6RR7XRs9QMeQwGN-8" target="ctpqW6RR7XRs9QMeQwGN-22">
          <mxGeometry relative="1" as="geometry">
            <mxPoint x="340" y="145" as="sourcePoint" />
            <mxPoint x="140" y="215" as="targetPoint" />
            <Array as="points">
              <mxPoint x="270" y="545" />
            </Array>
          </mxGeometry>
        </mxCell>
        <mxCell id="ctpqW6RR7XRs9QMeQwGN-34" value="extends" style="html=1;verticalAlign=bottom;endArrow=open;dashed=1;endSize=8;edgeStyle=elbowEdgeStyle;elbow=vertical;curved=0;rounded=0;exitX=0.5;exitY=0;exitDx=0;exitDy=0;entryX=1;entryY=0.5;entryDx=0;entryDy=0;" edge="1" parent="1" source="ctpqW6RR7XRs9QMeQwGN-17" target="ctpqW6RR7XRs9QMeQwGN-22">
          <mxGeometry relative="1" as="geometry">
            <mxPoint x="340" y="560" as="sourcePoint" />
            <mxPoint x="140" y="601" as="targetPoint" />
            <Array as="points">
              <mxPoint x="260" y="611" />
            </Array>
          </mxGeometry>
        </mxCell>
        <mxCell id="ctpqW6RR7XRs9QMeQwGN-35" value="extends" style="html=1;verticalAlign=bottom;endArrow=open;dashed=1;endSize=8;edgeStyle=elbowEdgeStyle;elbow=vertical;curved=0;rounded=0;exitX=0;exitY=0.5;exitDx=0;exitDy=0;entryX=0.5;entryY=1;entryDx=0;entryDy=0;" edge="1" parent="1" source="ctpqW6RR7XRs9QMeQwGN-23" target="ctpqW6RR7XRs9QMeQwGN-22">
          <mxGeometry relative="1" as="geometry">
            <mxPoint x="350" y="570" as="sourcePoint" />
            <mxPoint x="150" y="611" as="targetPoint" />
            <Array as="points">
              <mxPoint x="240" y="785" />
            </Array>
          </mxGeometry>
        </mxCell>
        <mxCell id="ctpqW6RR7XRs9QMeQwGN-36" value="includ&lt;br&gt;" style="html=1;verticalAlign=bottom;endArrow=open;dashed=1;endSize=8;edgeStyle=elbowEdgeStyle;elbow=vertical;curved=0;rounded=0;exitX=0.5;exitY=0;exitDx=0;exitDy=0;entryX=0;entryY=0.5;entryDx=0;entryDy=0;" edge="1" parent="1" source="ctpqW6RR7XRs9QMeQwGN-8" target="ctpqW6RR7XRs9QMeQwGN-12">
          <mxGeometry relative="1" as="geometry">
            <mxPoint x="400" y="130" as="sourcePoint" />
            <mxPoint x="530" y="73" as="targetPoint" />
            <Array as="points">
              <mxPoint x="470" y="478" />
            </Array>
          </mxGeometry>
        </mxCell>
        <mxCell id="ctpqW6RR7XRs9QMeQwGN-37" value="includ&lt;br&gt;" style="html=1;verticalAlign=bottom;endArrow=open;dashed=1;endSize=8;edgeStyle=elbowEdgeStyle;elbow=vertical;curved=0;rounded=0;exitX=0.645;exitY=0.036;exitDx=0;exitDy=0;entryX=0;entryY=0.5;entryDx=0;entryDy=0;exitPerimeter=0;" edge="1" parent="1" source="ctpqW6RR7XRs9QMeQwGN-8" target="ctpqW6RR7XRs9QMeQwGN-13">
          <mxGeometry relative="1" as="geometry">
            <mxPoint x="400" y="540" as="sourcePoint" />
            <mxPoint x="530" y="488" as="targetPoint" />
            <Array as="points">
              <mxPoint x="470" y="515" />
            </Array>
          </mxGeometry>
        </mxCell>
        <mxCell id="ctpqW6RR7XRs9QMeQwGN-38" value="includ&lt;br&gt;" style="html=1;verticalAlign=bottom;endArrow=open;dashed=1;endSize=8;edgeStyle=elbowEdgeStyle;elbow=vertical;curved=0;rounded=0;exitX=1;exitY=0.5;exitDx=0;exitDy=0;entryX=0;entryY=0.5;entryDx=0;entryDy=0;" edge="1" parent="1" source="ctpqW6RR7XRs9QMeQwGN-8" target="ctpqW6RR7XRs9QMeQwGN-14">
          <mxGeometry relative="1" as="geometry">
            <mxPoint x="410" y="550" as="sourcePoint" />
            <mxPoint x="540" y="498" as="targetPoint" />
            <Array as="points">
              <mxPoint x="480" y="576" />
            </Array>
          </mxGeometry>
        </mxCell>
        <mxCell id="ctpqW6RR7XRs9QMeQwGN-39" value="includ&lt;br&gt;" style="html=1;verticalAlign=bottom;endArrow=open;dashed=1;endSize=8;edgeStyle=elbowEdgeStyle;elbow=vertical;curved=0;rounded=0;exitX=0.5;exitY=1;exitDx=0;exitDy=0;entryX=0;entryY=0.5;entryDx=0;entryDy=0;" edge="1" parent="1" source="ctpqW6RR7XRs9QMeQwGN-8" target="ctpqW6RR7XRs9QMeQwGN-15">
          <mxGeometry relative="1" as="geometry">
            <mxPoint x="420" y="560" as="sourcePoint" />
            <mxPoint x="550" y="508" as="targetPoint" />
            <Array as="points">
              <mxPoint x="460" y="595" />
            </Array>
          </mxGeometry>
        </mxCell>
        <mxCell id="ctpqW6RR7XRs9QMeQwGN-40" value="extends" style="html=1;verticalAlign=bottom;endArrow=open;dashed=1;endSize=8;edgeStyle=elbowEdgeStyle;elbow=vertical;curved=0;rounded=0;exitX=0;exitY=0.5;exitDx=0;exitDy=0;entryX=1;entryY=0.5;entryDx=0;entryDy=0;" edge="1" parent="1" source="ctpqW6RR7XRs9QMeQwGN-24" target="ctpqW6RR7XRs9QMeQwGN-23">
          <mxGeometry relative="1" as="geometry">
            <mxPoint x="340" y="795" as="sourcePoint" />
            <mxPoint x="140" y="641" as="targetPoint" />
            <Array as="points" />
          </mxGeometry>
        </mxCell>
        <mxCell id="ctpqW6RR7XRs9QMeQwGN-43" value="" style="endArrow=none;html=1;rounded=0;entryX=0;entryY=0.5;entryDx=0;entryDy=0;" edge="1" parent="1" target="ctpqW6RR7XRs9QMeQwGN-9">
          <mxGeometry width="50" height="50" relative="1" as="geometry">
            <mxPoint x="-20" y="435" as="sourcePoint" />
            <mxPoint x="260" y="425" as="targetPoint" />
          </mxGeometry>
        </mxCell>
        <mxCell id="ctpqW6RR7XRs9QMeQwGN-44" value="" style="endArrow=none;html=1;rounded=0;entryX=0;entryY=0.5;entryDx=0;entryDy=0;exitX=1;exitY=0.3333333333333333;exitDx=0;exitDy=0;exitPerimeter=0;" edge="1" parent="1" source="ctpqW6RR7XRs9QMeQwGN-1" target="ctpqW6RR7XRs9QMeQwGN-22">
          <mxGeometry width="50" height="50" relative="1" as="geometry">
            <mxPoint x="-10" y="368" as="sourcePoint" />
            <mxPoint x="80" y="235" as="targetPoint" />
          </mxGeometry>
        </mxCell>
        <mxCell id="ctpqW6RR7XRs9QMeQwGN-45" value="Candidat" style="shape=umlActor;verticalLabelPosition=bottom;verticalAlign=top;html=1;outlineConnect=0;" vertex="1" parent="1">
          <mxGeometry x="65" y="1175" width="30" height="60" as="geometry" />
        </mxCell>
        <mxCell id="ctpqW6RR7XRs9QMeQwGN-48" value="Saisir les informations de &lt;br/&gt;candidat" style="rounded=1;whiteSpace=wrap;html=1;" vertex="1" parent="1">
          <mxGeometry x="635" y="1060" width="150" height="40" as="geometry" />
        </mxCell>
        <mxCell id="ctpqW6RR7XRs9QMeQwGN-50" value="Verifier son email&amp;nbsp;" style="rounded=1;whiteSpace=wrap;html=1;" vertex="1" parent="1">
          <mxGeometry x="635" y="1112.5" width="150" height="37.5" as="geometry" />
        </mxCell>
        <mxCell id="ctpqW6RR7XRs9QMeQwGN-51" value="Gestion de compte candidat" style="rounded=1;whiteSpace=wrap;html=1;" vertex="1" parent="1">
          <mxGeometry x="185" y="1130" width="120" height="40" as="geometry" />
        </mxCell>
        <mxCell id="ctpqW6RR7XRs9QMeQwGN-52" value="extends" style="html=1;verticalAlign=bottom;endArrow=open;dashed=1;endSize=8;edgeStyle=elbowEdgeStyle;elbow=vertical;curved=0;rounded=0;exitX=0;exitY=0.5;exitDx=0;exitDy=0;entryX=0.5;entryY=0;entryDx=0;entryDy=0;" edge="1" parent="1" target="ctpqW6RR7XRs9QMeQwGN-51">
          <mxGeometry relative="1" as="geometry">
            <mxPoint x="445" y="1100" as="sourcePoint" />
            <mxPoint x="315" y="1180.43" as="targetPoint" />
            <Array as="points">
              <mxPoint x="375" y="1100" />
            </Array>
          </mxGeometry>
        </mxCell>
        <mxCell id="ctpqW6RR7XRs9QMeQwGN-53" value="includ&lt;br&gt;" style="html=1;verticalAlign=bottom;endArrow=open;dashed=1;endSize=8;edgeStyle=elbowEdgeStyle;elbow=vertical;curved=0;rounded=0;exitX=0.5;exitY=0;exitDx=0;exitDy=0;entryX=0;entryY=0.5;entryDx=0;entryDy=0;" edge="1" parent="1" target="ctpqW6RR7XRs9QMeQwGN-48">
          <mxGeometry relative="1" as="geometry">
            <mxPoint x="505" y="1085" as="sourcePoint" />
            <mxPoint x="255" y="1180" as="targetPoint" />
            <Array as="points">
              <mxPoint x="565" y="1068" />
            </Array>
          </mxGeometry>
        </mxCell>
        <mxCell id="ctpqW6RR7XRs9QMeQwGN-55" value="includ&lt;br&gt;" style="html=1;verticalAlign=bottom;endArrow=open;dashed=1;endSize=8;edgeStyle=elbowEdgeStyle;elbow=vertical;curved=0;rounded=0;entryX=0;entryY=0.5;entryDx=0;entryDy=0;" edge="1" parent="1" target="ctpqW6RR7XRs9QMeQwGN-50">
          <mxGeometry relative="1" as="geometry">
            <mxPoint x="505" y="1110" as="sourcePoint" />
            <mxPoint x="645" y="1108" as="targetPoint" />
            <Array as="points">
              <mxPoint x="575" y="1140" />
            </Array>
          </mxGeometry>
        </mxCell>
        <mxCell id="ctpqW6RR7XRs9QMeQwGN-57" value="Inscrire" style="rounded=1;whiteSpace=wrap;html=1;" vertex="1" parent="1">
          <mxGeometry x="330" y="115" width="120" height="30" as="geometry" />
        </mxCell>
        <mxCell id="ctpqW6RR7XRs9QMeQwGN-58" value="Inscrire" style="rounded=1;whiteSpace=wrap;html=1;" vertex="1" parent="1">
          <mxGeometry x="445" y="1082.5" width="120" height="30" as="geometry" />
        </mxCell>
        <mxCell id="ctpqW6RR7XRs9QMeQwGN-59" value="Modifier son profile" style="rounded=1;whiteSpace=wrap;html=1;" vertex="1" parent="1">
          <mxGeometry x="445" y="1190" width="120" height="30" as="geometry" />
        </mxCell>
        <mxCell id="ctpqW6RR7XRs9QMeQwGN-60" value="extends" style="html=1;verticalAlign=bottom;endArrow=open;dashed=1;endSize=8;edgeStyle=elbowEdgeStyle;elbow=vertical;curved=0;rounded=0;exitX=0;exitY=0.5;exitDx=0;exitDy=0;entryX=0.5;entryY=1;entryDx=0;entryDy=0;" edge="1" parent="1" source="ctpqW6RR7XRs9QMeQwGN-59" target="ctpqW6RR7XRs9QMeQwGN-51">
          <mxGeometry relative="1" as="geometry">
            <mxPoint x="455" y="1110" as="sourcePoint" />
            <mxPoint x="255" y="1140" as="targetPoint" />
            <Array as="points">
              <mxPoint x="345" y="1200" />
            </Array>
          </mxGeometry>
        </mxCell>
        <mxCell id="ctpqW6RR7XRs9QMeQwGN-61" value="Attacher un CV" style="rounded=1;whiteSpace=wrap;html=1;" vertex="1" parent="1">
          <mxGeometry x="635" y="1186.25" width="150" height="33.75" as="geometry" />
        </mxCell>
        <mxCell id="ctpqW6RR7XRs9QMeQwGN-62" value="extends" style="html=1;verticalAlign=bottom;endArrow=open;dashed=1;endSize=8;edgeStyle=elbowEdgeStyle;elbow=vertical;curved=0;rounded=0;exitX=0;exitY=0.5;exitDx=0;exitDy=0;entryX=1;entryY=0.25;entryDx=0;entryDy=0;" edge="1" parent="1" source="ctpqW6RR7XRs9QMeQwGN-61" target="ctpqW6RR7XRs9QMeQwGN-59">
          <mxGeometry relative="1" as="geometry">
            <mxPoint x="645" y="880" as="sourcePoint" />
            <mxPoint x="575" y="880" as="targetPoint" />
            <Array as="points">
              <mxPoint x="595" y="1210" />
            </Array>
          </mxGeometry>
        </mxCell>
        <mxCell id="ctpqW6RR7XRs9QMeQwGN-64" value="Consulter les offres d&#39;emplois" style="rounded=1;whiteSpace=wrap;html=1;" vertex="1" parent="1">
          <mxGeometry x="185" y="1260" width="120" height="40" as="geometry" />
        </mxCell>
        <mxCell id="ctpqW6RR7XRs9QMeQwGN-65" value="Postuler" style="rounded=1;whiteSpace=wrap;html=1;" vertex="1" parent="1">
          <mxGeometry x="445" y="1265" width="120" height="30" as="geometry" />
        </mxCell>
        <mxCell id="ctpqW6RR7XRs9QMeQwGN-66" value="Saisir une lettre de motivation" style="rounded=1;whiteSpace=wrap;html=1;" vertex="1" parent="1">
          <mxGeometry x="635" y="1263.13" width="150" height="33.75" as="geometry" />
        </mxCell>
        <mxCell id="ctpqW6RR7XRs9QMeQwGN-67" value="extends" style="html=1;verticalAlign=bottom;endArrow=open;dashed=1;endSize=8;edgeStyle=elbowEdgeStyle;elbow=vertical;curved=0;rounded=0;exitX=0;exitY=0.5;exitDx=0;exitDy=0;entryX=1;entryY=0.5;entryDx=0;entryDy=0;" edge="1" parent="1" source="ctpqW6RR7XRs9QMeQwGN-65" target="ctpqW6RR7XRs9QMeQwGN-64">
          <mxGeometry relative="1" as="geometry">
            <mxPoint x="455" y="1215" as="sourcePoint" />
            <mxPoint x="255" y="1180" as="targetPoint" />
            <Array as="points">
              <mxPoint x="375" y="1280" />
            </Array>
          </mxGeometry>
        </mxCell>
        <mxCell id="ctpqW6RR7XRs9QMeQwGN-68" value="includ&lt;br&gt;" style="html=1;verticalAlign=bottom;endArrow=open;dashed=1;endSize=8;edgeStyle=elbowEdgeStyle;elbow=vertical;curved=0;rounded=0;entryX=0;entryY=0.5;entryDx=0;entryDy=0;exitX=1;exitY=0.5;exitDx=0;exitDy=0;" edge="1" parent="1" source="ctpqW6RR7XRs9QMeQwGN-65" target="ctpqW6RR7XRs9QMeQwGN-66">
          <mxGeometry relative="1" as="geometry">
            <mxPoint x="515" y="1120" as="sourcePoint" />
            <mxPoint x="645" y="1141" as="targetPoint" />
            <Array as="points">
              <mxPoint x="605" y="1280" />
            </Array>
          </mxGeometry>
        </mxCell>
        <mxCell id="ctpqW6RR7XRs9QMeQwGN-69" value="" style="endArrow=none;html=1;rounded=0;exitX=1;exitY=0.3333333333333333;exitDx=0;exitDy=0;exitPerimeter=0;entryX=0;entryY=0.5;entryDx=0;entryDy=0;" edge="1" parent="1" source="ctpqW6RR7XRs9QMeQwGN-45" target="ctpqW6RR7XRs9QMeQwGN-51">
          <mxGeometry width="50" height="50" relative="1" as="geometry">
            <mxPoint x="325" y="1010" as="sourcePoint" />
            <mxPoint x="375" y="960" as="targetPoint" />
          </mxGeometry>
        </mxCell>
        <mxCell id="ctpqW6RR7XRs9QMeQwGN-70" value="" style="endArrow=none;html=1;rounded=0;entryX=0;entryY=0.5;entryDx=0;entryDy=0;exitX=1;exitY=0.3333333333333333;exitDx=0;exitDy=0;exitPerimeter=0;" edge="1" parent="1" source="ctpqW6RR7XRs9QMeQwGN-45" target="ctpqW6RR7XRs9QMeQwGN-64">
          <mxGeometry width="50" height="50" relative="1" as="geometry">
            <mxPoint x="95" y="1200" as="sourcePoint" />
            <mxPoint x="195" y="1160" as="targetPoint" />
          </mxGeometry>
        </mxCell>
        <mxCell id="ctpqW6RR7XRs9QMeQwGN-76" value="Admin" style="shape=umlActor;verticalLabelPosition=bottom;verticalAlign=top;html=1;outlineConnect=0;" vertex="1" parent="1">
          <mxGeometry x="1690" y="900" width="30" height="60" as="geometry" />
        </mxCell>
        <mxCell id="ctpqW6RR7XRs9QMeQwGN-78" value="Valider L’entreprise et vérifier&lt;br style=&quot;border-color: var(--border-color);&quot;&gt;les cordonnées de l’employer" style="rounded=1;whiteSpace=wrap;html=1;" vertex="1" parent="1">
          <mxGeometry x="995" y="700" width="180" height="50" as="geometry" />
        </mxCell>
        <mxCell id="ctpqW6RR7XRs9QMeQwGN-81" value="Envoyer une notification &lt;br/&gt;courriel à l’employer à &lt;br/&gt;l’heure de validation&amp;nbsp;" style="rounded=1;whiteSpace=wrap;html=1;" vertex="1" parent="1">
          <mxGeometry x="1020" y="586" width="180" height="50" as="geometry" />
        </mxCell>
        <mxCell id="ctpqW6RR7XRs9QMeQwGN-82" value="Consulter la liste des &lt;br/&gt;employeurs&amp;nbsp;" style="rounded=1;whiteSpace=wrap;html=1;" vertex="1" parent="1">
          <mxGeometry x="995" y="770" width="180" height="50" as="geometry" />
        </mxCell>
        <mxCell id="ctpqW6RR7XRs9QMeQwGN-83" value="Gestion des employeur" style="rounded=1;whiteSpace=wrap;html=1;" vertex="1" parent="1">
          <mxGeometry x="1250" y="730" width="120" height="40" as="geometry" />
        </mxCell>
        <mxCell id="ctpqW6RR7XRs9QMeQwGN-84" value="Gestion des candidats" style="rounded=1;whiteSpace=wrap;html=1;" vertex="1" parent="1">
          <mxGeometry x="1250" y="882.5" width="120" height="40" as="geometry" />
        </mxCell>
        <mxCell id="ctpqW6RR7XRs9QMeQwGN-85" value="Consulter la liste des &lt;br&gt;candidats" style="rounded=1;whiteSpace=wrap;html=1;" vertex="1" parent="1">
          <mxGeometry x="995" y="877.5" width="180" height="50" as="geometry" />
        </mxCell>
        <mxCell id="ctpqW6RR7XRs9QMeQwGN-86" value="Gestion des catégories des offres&amp;nbsp;" style="rounded=1;whiteSpace=wrap;html=1;" vertex="1" parent="1">
          <mxGeometry x="1250" y="1030" width="120" height="40" as="geometry" />
        </mxCell>
        <mxCell id="ctpqW6RR7XRs9QMeQwGN-87" value="Gestion des catégories des blogs" style="rounded=1;whiteSpace=wrap;html=1;" vertex="1" parent="1">
          <mxGeometry x="1250" y="1100" width="120" height="40" as="geometry" />
        </mxCell>
        <mxCell id="ctpqW6RR7XRs9QMeQwGN-88" value="Gestion des blogs" style="rounded=1;whiteSpace=wrap;html=1;" vertex="1" parent="1">
          <mxGeometry x="1250" y="1170" width="120" height="40" as="geometry" />
        </mxCell>
        <mxCell id="ctpqW6RR7XRs9QMeQwGN-94" value="Gestion de l&#39;application" style="rounded=1;whiteSpace=wrap;html=1;" vertex="1" parent="1">
          <mxGeometry x="1480" y="910" width="120" height="40" as="geometry" />
        </mxCell>
        <mxCell id="ctpqW6RR7XRs9QMeQwGN-96" value="" style="endArrow=none;html=1;rounded=0;entryX=0.5;entryY=0.5;entryDx=0;entryDy=0;entryPerimeter=0;exitX=1;exitY=0.5;exitDx=0;exitDy=0;" edge="1" parent="1" source="ctpqW6RR7XRs9QMeQwGN-94" target="ctpqW6RR7XRs9QMeQwGN-76">
          <mxGeometry width="50" height="50" relative="1" as="geometry">
            <mxPoint x="920" y="940" as="sourcePoint" />
            <mxPoint x="970" y="890" as="targetPoint" />
          </mxGeometry>
        </mxCell>
        <mxCell id="ctpqW6RR7XRs9QMeQwGN-97" value="extends" style="html=1;verticalAlign=bottom;endArrow=open;dashed=1;endSize=8;edgeStyle=elbowEdgeStyle;elbow=vertical;curved=0;rounded=0;entryX=0.5;entryY=0;entryDx=0;entryDy=0;exitX=1;exitY=0.5;exitDx=0;exitDy=0;" edge="1" parent="1" source="ctpqW6RR7XRs9QMeQwGN-83" target="ctpqW6RR7XRs9QMeQwGN-94">
          <mxGeometry relative="1" as="geometry">
            <mxPoint x="1610" y="800" as="sourcePoint" />
            <mxPoint x="1590" y="840" as="targetPoint" />
            <Array as="points">
              <mxPoint x="1480" y="750" />
              <mxPoint x="1520" y="730" />
              <mxPoint x="1580" y="760" />
              <mxPoint x="1440" y="750" />
            </Array>
          </mxGeometry>
        </mxCell>
        <mxCell id="ctpqW6RR7XRs9QMeQwGN-100" value="extends" style="html=1;verticalAlign=bottom;endArrow=open;dashed=1;endSize=8;edgeStyle=elbowEdgeStyle;elbow=vertical;curved=0;rounded=0;entryX=0.25;entryY=0;entryDx=0;entryDy=0;exitX=0.5;exitY=0;exitDx=0;exitDy=0;" edge="1" parent="1" source="ctpqW6RR7XRs9QMeQwGN-84" target="ctpqW6RR7XRs9QMeQwGN-94">
          <mxGeometry relative="1" as="geometry">
            <mxPoint x="1380" y="760" as="sourcePoint" />
            <mxPoint x="1550" y="920" as="targetPoint" />
            <Array as="points">
              <mxPoint x="1440" y="850" />
              <mxPoint x="1530" y="740" />
              <mxPoint x="1590" y="770" />
              <mxPoint x="1450" y="760" />
            </Array>
          </mxGeometry>
        </mxCell>
        <mxCell id="ctpqW6RR7XRs9QMeQwGN-101" value="extends" style="html=1;verticalAlign=bottom;endArrow=open;dashed=1;endSize=8;edgeStyle=elbowEdgeStyle;elbow=vertical;curved=0;rounded=0;entryX=0.25;entryY=1;entryDx=0;entryDy=0;exitX=0.5;exitY=0;exitDx=0;exitDy=0;" edge="1" parent="1" source="ctpqW6RR7XRs9QMeQwGN-86" target="ctpqW6RR7XRs9QMeQwGN-94">
          <mxGeometry relative="1" as="geometry">
            <mxPoint x="1320" y="943" as="sourcePoint" />
            <mxPoint x="1480" y="980" as="targetPoint" />
            <Array as="points">
              <mxPoint x="1410" y="990" />
              <mxPoint x="1540" y="800" />
              <mxPoint x="1600" y="830" />
              <mxPoint x="1460" y="820" />
            </Array>
          </mxGeometry>
        </mxCell>
        <mxCell id="ctpqW6RR7XRs9QMeQwGN-102" value="extends" style="html=1;verticalAlign=bottom;endArrow=open;dashed=1;endSize=8;edgeStyle=elbowEdgeStyle;elbow=vertical;curved=0;rounded=0;entryX=0.5;entryY=1;entryDx=0;entryDy=0;exitX=1;exitY=0.5;exitDx=0;exitDy=0;" edge="1" parent="1" source="ctpqW6RR7XRs9QMeQwGN-87" target="ctpqW6RR7XRs9QMeQwGN-94">
          <mxGeometry relative="1" as="geometry">
            <mxPoint x="1320" y="1040" as="sourcePoint" />
            <mxPoint x="1540" y="1000" as="targetPoint" />
            <Array as="points">
              <mxPoint x="1450" y="1120" />
              <mxPoint x="1550" y="810" />
              <mxPoint x="1610" y="840" />
              <mxPoint x="1470" y="830" />
            </Array>
          </mxGeometry>
        </mxCell>
        <mxCell id="ctpqW6RR7XRs9QMeQwGN-103" value="extends" style="html=1;verticalAlign=bottom;endArrow=open;dashed=1;endSize=8;edgeStyle=elbowEdgeStyle;elbow=vertical;curved=0;rounded=0;entryX=0.75;entryY=1;entryDx=0;entryDy=0;exitX=1;exitY=0.5;exitDx=0;exitDy=0;" edge="1" parent="1" source="ctpqW6RR7XRs9QMeQwGN-88" target="ctpqW6RR7XRs9QMeQwGN-94">
          <mxGeometry relative="1" as="geometry">
            <mxPoint x="1380" y="1130" as="sourcePoint" />
            <mxPoint x="1582.3599999999997" y="1001.3999999999996" as="targetPoint" />
            <Array as="points">
              <mxPoint x="1470" y="1190" />
              <mxPoint x="1560" y="820" />
              <mxPoint x="1620" y="850" />
              <mxPoint x="1480" y="840" />
            </Array>
          </mxGeometry>
        </mxCell>
        <mxCell id="ctpqW6RR7XRs9QMeQwGN-104" value="extends" style="html=1;verticalAlign=bottom;endArrow=open;dashed=1;endSize=8;edgeStyle=elbowEdgeStyle;elbow=vertical;curved=0;rounded=0;entryX=0.5;entryY=0;entryDx=0;entryDy=0;exitX=1;exitY=0.5;exitDx=0;exitDy=0;" edge="1" parent="1" source="ctpqW6RR7XRs9QMeQwGN-78" target="ctpqW6RR7XRs9QMeQwGN-83">
          <mxGeometry relative="1" as="geometry">
            <mxPoint x="1320" y="893" as="sourcePoint" />
            <mxPoint x="1520" y="920" as="targetPoint" />
            <Array as="points">
              <mxPoint x="1210" y="710" />
              <mxPoint x="1450" y="860" />
              <mxPoint x="1540" y="750" />
              <mxPoint x="1600" y="780" />
              <mxPoint x="1460" y="770" />
            </Array>
          </mxGeometry>
        </mxCell>
        <mxCell id="ctpqW6RR7XRs9QMeQwGN-105" value="extends" style="html=1;verticalAlign=bottom;endArrow=open;dashed=1;endSize=8;edgeStyle=elbowEdgeStyle;elbow=vertical;curved=0;rounded=0;entryX=0.5;entryY=1;entryDx=0;entryDy=0;" edge="1" parent="1" target="ctpqW6RR7XRs9QMeQwGN-83">
          <mxGeometry relative="1" as="geometry">
            <mxPoint x="1175" y="790" as="sourcePoint" />
            <mxPoint x="1260" y="760" as="targetPoint" />
            <Array as="points">
              <mxPoint x="1220" y="800" />
              <mxPoint x="1230" y="820" />
              <mxPoint x="1460" y="870" />
              <mxPoint x="1550" y="760" />
              <mxPoint x="1610" y="790" />
              <mxPoint x="1470" y="780" />
            </Array>
          </mxGeometry>
        </mxCell>
        <mxCell id="ctpqW6RR7XRs9QMeQwGN-106" value="extends" style="html=1;verticalAlign=bottom;endArrow=open;dashed=1;endSize=8;edgeStyle=elbowEdgeStyle;elbow=vertical;curved=0;rounded=0;entryX=0;entryY=0.5;entryDx=0;entryDy=0;exitX=1;exitY=0.5;exitDx=0;exitDy=0;" edge="1" parent="1" source="ctpqW6RR7XRs9QMeQwGN-85" target="ctpqW6RR7XRs9QMeQwGN-84">
          <mxGeometry relative="1" as="geometry">
            <mxPoint x="1185" y="800" as="sourcePoint" />
            <mxPoint x="1320" y="780" as="targetPoint" />
            <Array as="points">
              <mxPoint x="1210" y="900" />
              <mxPoint x="1240" y="830" />
              <mxPoint x="1470" y="880" />
              <mxPoint x="1560" y="770" />
              <mxPoint x="1620" y="800" />
              <mxPoint x="1480" y="790" />
            </Array>
          </mxGeometry>
        </mxCell>
        <mxCell id="ctpqW6RR7XRs9QMeQwGN-107" value="includ&lt;br&gt;" style="html=1;verticalAlign=bottom;endArrow=open;dashed=1;endSize=8;edgeStyle=elbowEdgeStyle;elbow=vertical;curved=0;rounded=0;exitX=0.5;exitY=0;exitDx=0;exitDy=0;entryX=0.5;entryY=1;entryDx=0;entryDy=0;" edge="1" parent="1" source="ctpqW6RR7XRs9QMeQwGN-78" target="ctpqW6RR7XRs9QMeQwGN-81">
          <mxGeometry relative="1" as="geometry">
            <mxPoint x="350" y="865" as="sourcePoint" />
            <mxPoint x="810" y="840" as="targetPoint" />
            <Array as="points">
              <mxPoint x="1150" y="668" />
            </Array>
          </mxGeometry>
        </mxCell>
        <mxCell id="ctpqW6RR7XRs9QMeQwGN-108" value="Authantifier" style="rounded=1;whiteSpace=wrap;html=1;" vertex="1" parent="1">
          <mxGeometry x="210" y="880" width="580" height="60" as="geometry" />
        </mxCell>
        <mxCell id="ctpqW6RR7XRs9QMeQwGN-109" value="" style="endArrow=classic;html=1;rounded=0;" edge="1" parent="1">
          <mxGeometry width="50" height="50" relative="1" as="geometry">
            <mxPoint x="1705" y="990" as="sourcePoint" />
            <mxPoint x="90" y="1260" as="targetPoint" />
            <Array as="points">
              <mxPoint x="1710" y="1420" />
              <mxPoint x="90" y="1420" />
            </Array>
          </mxGeometry>
        </mxCell>
        <mxCell id="ctpqW6RR7XRs9QMeQwGN-111" value="" style="endArrow=classic;html=1;rounded=0;" edge="1" parent="1">
          <mxGeometry width="50" height="50" relative="1" as="geometry">
            <mxPoint x="1710" y="980" as="sourcePoint" />
            <mxPoint x="-50" y="510" as="targetPoint" />
            <Array as="points">
              <mxPoint x="1720" y="1480" />
              <mxPoint x="-50" y="1480" />
            </Array>
          </mxGeometry>
        </mxCell>
        <mxCell id="ctpqW6RR7XRs9QMeQwGN-112" value="includ&lt;br&gt;" style="html=1;verticalAlign=bottom;endArrow=open;dashed=1;endSize=8;edgeStyle=elbowEdgeStyle;elbow=vertical;curved=0;rounded=0;exitX=0.25;exitY=0;exitDx=0;exitDy=0;entryX=0;entryY=0.5;entryDx=0;entryDy=0;" edge="1" parent="1" source="ctpqW6RR7XRs9QMeQwGN-57" target="ctpqW6RR7XRs9QMeQwGN-78">
          <mxGeometry relative="1" as="geometry">
            <mxPoint x="400" y="125" as="sourcePoint" />
            <mxPoint x="530" y="88" as="targetPoint" />
            <Array as="points">
              <mxPoint x="760" y="30" />
              <mxPoint x="890" y="80" />
              <mxPoint x="660" y="88" />
            </Array>
          </mxGeometry>
        </mxCell>
        <mxCell id="ctpqW6RR7XRs9QMeQwGN-114" value="includ&lt;br&gt;" style="html=1;verticalAlign=bottom;endArrow=open;dashed=1;endSize=8;edgeStyle=elbowEdgeStyle;elbow=vertical;curved=0;rounded=0;exitX=0;exitY=0.5;exitDx=0;exitDy=0;entryX=0.964;entryY=1.192;entryDx=0;entryDy=0;entryPerimeter=0;" edge="1" parent="1" source="ctpqW6RR7XRs9QMeQwGN-94" target="ctpqW6RR7XRs9QMeQwGN-108">
          <mxGeometry relative="1" as="geometry">
            <mxPoint x="420" y="145" as="sourcePoint" />
            <mxPoint x="740" y="870" as="targetPoint" />
            <Array as="points">
              <mxPoint x="1130" y="970" />
              <mxPoint x="950" y="970" />
              <mxPoint x="960" y="990" />
              <mxPoint x="1190" y="950" />
              <mxPoint x="1060" y="930" />
              <mxPoint x="1020" y="1280" />
              <mxPoint x="910" y="1370" />
              <mxPoint x="1310" y="1320" />
            </Array>
          </mxGeometry>
        </mxCell>
        <mxCell id="ctpqW6RR7XRs9QMeQwGN-115" value="includ&lt;br&gt;" style="html=1;verticalAlign=bottom;endArrow=open;dashed=1;endSize=8;edgeStyle=elbowEdgeStyle;elbow=vertical;curved=0;rounded=0;exitX=0.5;exitY=1;exitDx=0;exitDy=0;entryX=1;entryY=0.75;entryDx=0;entryDy=0;" edge="1" parent="1" source="ctpqW6RR7XRs9QMeQwGN-59" target="ctpqW6RR7XRs9QMeQwGN-108">
          <mxGeometry relative="1" as="geometry">
            <mxPoint x="430" y="155" as="sourcePoint" />
            <mxPoint x="880" y="1030" as="targetPoint" />
            <Array as="points">
              <mxPoint x="850" y="1030" />
              <mxPoint x="690" y="1240" />
              <mxPoint x="750" y="980" />
              <mxPoint x="610" y="1240" />
              <mxPoint x="830" y="990" />
              <mxPoint x="790" y="1240" />
            </Array>
          </mxGeometry>
        </mxCell>
        <mxCell id="ctpqW6RR7XRs9QMeQwGN-116" value="includ&lt;br&gt;" style="html=1;verticalAlign=bottom;endArrow=open;dashed=1;endSize=8;edgeStyle=elbowEdgeStyle;elbow=vertical;curved=0;rounded=0;exitX=0.5;exitY=1;exitDx=0;exitDy=0;arcSize=20;entryX=1;entryY=0.25;entryDx=0;entryDy=0;" edge="1" parent="1" source="ctpqW6RR7XRs9QMeQwGN-64" target="ctpqW6RR7XRs9QMeQwGN-108">
          <mxGeometry relative="1" as="geometry">
            <mxPoint x="440" y="165" as="sourcePoint" />
            <mxPoint x="820" y="980" as="targetPoint" />
            <Array as="points">
              <mxPoint x="970" y="1300" />
              <mxPoint x="970" y="1340" />
              <mxPoint x="900" y="1340" />
              <mxPoint x="910" y="1330" />
            </Array>
          </mxGeometry>
        </mxCell>
        <mxCell id="ctpqW6RR7XRs9QMeQwGN-117" value="includ&lt;br&gt;" style="html=1;verticalAlign=bottom;endArrow=open;dashed=1;endSize=8;edgeStyle=elbowEdgeStyle;elbow=vertical;curved=0;rounded=0;exitX=0.25;exitY=1;exitDx=0;exitDy=0;entryX=0;entryY=0.25;entryDx=0;entryDy=0;" edge="1" parent="1" source="ctpqW6RR7XRs9QMeQwGN-22" target="ctpqW6RR7XRs9QMeQwGN-108">
          <mxGeometry relative="1" as="geometry">
            <mxPoint x="450" y="175" as="sourcePoint" />
            <mxPoint x="580" y="138" as="targetPoint" />
            <Array as="points">
              <mxPoint x="100" y="910" />
            </Array>
          </mxGeometry>
        </mxCell>
        <mxCell id="ctpqW6RR7XRs9QMeQwGN-118" value="includ&lt;br&gt;" style="html=1;verticalAlign=bottom;endArrow=open;dashed=1;endSize=8;edgeStyle=elbowEdgeStyle;elbow=vertical;curved=0;rounded=0;exitX=0;exitY=0.25;exitDx=0;exitDy=0;entryX=0.099;entryY=1.067;entryDx=0;entryDy=0;entryPerimeter=0;" edge="1" parent="1" source="ctpqW6RR7XRs9QMeQwGN-20" target="ctpqW6RR7XRs9QMeQwGN-108">
          <mxGeometry relative="1" as="geometry">
            <mxPoint x="460" y="185" as="sourcePoint" />
            <mxPoint x="260" y="300" as="targetPoint" />
            <Array as="points">
              <mxPoint x="60" y="430" />
              <mxPoint x="720" y="148" />
            </Array>
          </mxGeometry>
        </mxCell>
      </root>
    </mxGraphModel>
  </diagram>
</mxfile>
